<svg width="256" height="256" viewBox="0 0 48 48" fill="none" xmlns="http://www.w3.org/2000/svg">
  <defs>
    <linearGradient id="g" x1="0%" y1="0%" x2="100%" y2="100%">
      <stop offset="0%" stop-color="#6366f1"/>
      <stop offset="50%" stop-color="#8b5cf6"/>
      <stop offset="100%" stop-color="#a78bfa"/>
    </linearGradient>
  </defs>
  <rect width="48" height="48" rx="10" fill="#1a1a2e"/>
  <circle cx="24" cy="24" r="21" stroke="url(#g)" stroke-width="1.5" opacity="0.3"/>
  <line x1="24" y1="12" x2="12" y2="30" stroke="url(#g)" stroke-width="1.5" opacity="0.5"/>
  <line x1="24" y1="12" x2="36" y2="30" stroke="url(#g)" stroke-width="1.5" opacity="0.5"/>
  <line x1="12" y1="30" x2="36" y2="30" stroke="url(#g)" stroke-width="1.5" opacity="0.5"/>
  <line x1="24" y1="12" x2="24" y2="38" stroke="url(#g)" stroke-width="1.5" opacity="0.4"/>
  <line x1="12" y1="30" x2="24" y2="38" stroke="url(#g)" stroke-width="1.5" opacity="0.4"/>
  <line x1="36" y1="30" x2="24" y2="38" stroke="url(#g)" stroke-width="1.5" opacity="0.4"/>
  <line x1="24" y1="24" x2="24" y2="12" stroke="#a78bfa" stroke-width="1" opacity="0.6"/>
  <line x1="24" y1="24" x2="12" y2="30" stroke="#a78bfa" stroke-width="1" opacity="0.6"/>
  <line x1="24" y1="24" x2="36" y2="30" stroke="#a78bfa" stroke-width="1" opacity="0.6"/>
  <line x1="24" y1="24" x2="24" y2="38" stroke="#a78bfa" stroke-width="1" opacity="0.6"/>
  <circle cx="24" cy="12" r="4" fill="url(#g)"/>
  <circle cx="12" cy="30" r="3.5" fill="url(#g)"/>
  <circle cx="36" cy="30" r="3.5" fill="url(#g)"/>
  <circle cx="24" cy="38" r="3" fill="#a78bfa"/>
  <circle cx="24" cy="24" r="5" fill="url(#g)"/>
  <circle cx="24" cy="24" r="2.5" fill="white" opacity="0.9"/>
</svg>
